<svg width="242" height="88" viewBox="0 0 242 88" fill="none" xmlns="http://www.w3.org/2000/svg">
<circle cx="43.6607" cy="39.6607" r="39.6607" fill="#37393F"/>
<g filter="url(#filter0_d_1_3754)">
<path d="M42.6716 1.51307C52.3907 1.26106 61.8395 4.72822 69.0889 11.2067C76.3384 17.6852 80.8417 26.6864 81.6795 36.3726C82.5173 46.0588 79.6263 55.6996 73.5969 63.3266C67.5675 70.9536 58.8543 75.9916 49.2363 77.4122C39.6182 78.8327 29.8206 76.5285 21.8438 70.9701C13.867 65.4117 8.31262 57.0183 6.31455 47.5034C4.31649 37.9886 6.02548 28.0698 11.0926 19.7723C16.1597 11.4748 24.2029 5.42417 33.5799 2.85583" stroke="#40DDB6" stroke-width="3" stroke-linecap="round" stroke-linejoin="round"/>
</g>
<g filter="url(#filter1_d_1_3754)">
<path d="M27.9611 41.5605C28.0678 42.1472 28.3078 42.6005 28.6811 42.9205C29.0678 43.2272 29.5811 43.3805 30.2211 43.3805C31.0478 43.3805 31.6478 43.0405 32.0211 42.3605C32.3945 41.6672 32.5811 40.5072 32.5811 38.8805C32.2745 39.3072 31.8411 39.6405 31.2811 39.8805C30.7345 40.1205 30.1411 40.2405 29.5011 40.2405C28.6478 40.2405 27.8745 40.0672 27.1811 39.7205C26.5011 39.3605 25.9611 38.8339 25.5611 38.1405C25.1611 37.4339 24.9611 36.5805 24.9611 35.5805C24.9611 34.1005 25.4011 32.9272 26.2811 32.0605C27.1611 31.1805 28.3611 30.7405 29.8811 30.7405C31.7745 30.7405 33.1078 31.3472 33.8811 32.5605C34.6678 33.7739 35.0611 35.6005 35.0611 38.0405C35.0611 39.7739 34.9078 41.1939 34.6011 42.3005C34.3078 43.4072 33.7945 44.2472 33.0611 44.8205C32.3411 45.3939 31.3545 45.6805 30.1011 45.6805C29.1145 45.6805 28.2745 45.4939 27.5811 45.1205C26.8878 44.7339 26.3545 44.2339 25.9811 43.6205C25.6211 42.9939 25.4145 42.3072 25.3611 41.5605H27.9611ZM30.0811 37.9605C30.7745 37.9605 31.3211 37.7472 31.7211 37.3205C32.1211 36.8939 32.3211 36.3205 32.3211 35.6005C32.3211 34.8139 32.1078 34.2072 31.6811 33.7805C31.2678 33.3405 30.7011 33.1205 29.9811 33.1205C29.2611 33.1205 28.6878 33.3472 28.2611 33.8005C27.8478 34.2405 27.6411 34.8272 27.6411 35.5605C27.6411 36.2672 27.8411 36.8472 28.2411 37.3005C28.6545 37.7405 29.2678 37.9605 30.0811 37.9605ZM47.0407 33.5005H40.5607V36.9205C40.8407 36.5739 41.2407 36.2939 41.7607 36.0805C42.2807 35.8539 42.834 35.7405 43.4207 35.7405C44.4873 35.7405 45.3607 35.9739 46.0407 36.4405C46.7207 36.9072 47.214 37.5072 47.5207 38.2405C47.8273 38.9605 47.9807 39.7339 47.9807 40.5605C47.9807 42.0939 47.5407 43.3272 46.6607 44.2605C45.794 45.1939 44.554 45.6605 42.9407 45.6605C41.4207 45.6605 40.2073 45.2805 39.3007 44.5205C38.394 43.7605 37.8807 42.7672 37.7607 41.5405H40.4807C40.6007 42.0739 40.8673 42.5005 41.2807 42.8205C41.7073 43.1405 42.2473 43.3005 42.9007 43.3005C43.6873 43.3005 44.2807 43.0539 44.6807 42.5605C45.0807 42.0672 45.2807 41.4139 45.2807 40.6005C45.2807 39.7739 45.074 39.1472 44.6607 38.7205C44.2607 38.2805 43.6673 38.0605 42.8807 38.0605C42.3207 38.0605 41.854 38.2005 41.4807 38.4805C41.1073 38.7605 40.8407 39.1339 40.6807 39.6005H38.0007V31.0405H47.0407V33.5005ZM49.7918 34.6605C49.7918 33.6472 50.0851 32.8539 50.6718 32.2805C51.2718 31.7072 52.0384 31.4205 52.9718 31.4205C53.9051 31.4205 54.6651 31.7072 55.2518 32.2805C55.8518 32.8539 56.1518 33.6472 56.1518 34.6605C56.1518 35.6872 55.8518 36.4872 55.2518 37.0605C54.6651 37.6339 53.9051 37.9205 52.9718 37.9205C52.0384 37.9205 51.2718 37.6339 50.6718 37.0605C50.0851 36.4872 49.7918 35.6872 49.7918 34.6605ZM62.6318 31.6605L54.7718 45.6605H52.0518L59.8918 31.6605H62.6318ZM52.9518 33.1005C52.2184 33.1005 51.8518 33.6205 51.8518 34.6605C51.8518 35.7139 52.2184 36.2405 52.9518 36.2405C53.3118 36.2405 53.5918 36.1139 53.7918 35.8605C53.9918 35.5939 54.0918 35.1939 54.0918 34.6605C54.0918 33.6205 53.7118 33.1005 52.9518 33.1005ZM58.5718 42.6405C58.5718 41.6139 58.8651 40.8205 59.4518 40.2605C60.0518 39.6872 60.8184 39.4005 61.7518 39.4005C62.6851 39.4005 63.4384 39.6872 64.0118 40.2605C64.5984 40.8205 64.8918 41.6139 64.8918 42.6405C64.8918 43.6672 64.5984 44.4672 64.0118 45.0405C63.4384 45.6139 62.6851 45.9005 61.7518 45.9005C60.8051 45.9005 60.0384 45.6139 59.4518 45.0405C58.8651 44.4672 58.5718 43.6672 58.5718 42.6405ZM61.7318 41.0805C60.9718 41.0805 60.5918 41.6005 60.5918 42.6405C60.5918 43.6939 60.9718 44.2205 61.7318 44.2205C62.4784 44.2205 62.8518 43.6939 62.8518 42.6405C62.8518 41.6005 62.4784 41.0805 61.7318 41.0805Z" fill="white"/>
</g>
<path d="M106.094 23.6608H104.685C104.602 23.2555 104.456 22.8994 104.247 22.5926C104.043 22.2858 103.793 22.0282 103.497 21.8199C103.206 21.6077 102.882 21.4486 102.526 21.3426C102.17 21.2365 101.799 21.1835 101.412 21.1835C100.708 21.1835 100.069 21.3615 99.4974 21.7176C98.9292 22.0736 98.4766 22.5983 98.1395 23.2914C97.8061 23.9846 97.6395 24.835 97.6395 25.8426C97.6395 26.8502 97.8061 27.7005 98.1395 28.3937C98.4766 29.0869 98.9292 29.6115 99.4974 29.9676C100.069 30.3236 100.708 30.5017 101.412 30.5017C101.799 30.5017 102.17 30.4486 102.526 30.3426C102.882 30.2365 103.206 30.0793 103.497 29.871C103.793 29.6589 104.043 29.3994 104.247 29.0926C104.456 28.782 104.602 28.4259 104.685 28.0244H106.094C105.988 28.6191 105.795 29.1513 105.514 29.621C105.234 30.0907 104.886 30.4903 104.469 30.8199C104.052 31.1456 103.585 31.3937 103.066 31.5642C102.55 31.7346 101.999 31.8199 101.412 31.8199C100.42 31.8199 99.5372 31.5774 98.7645 31.0926C97.9917 30.6077 97.3838 29.9183 96.9406 29.0244C96.4974 28.1305 96.2758 27.0699 96.2758 25.8426C96.2758 24.6153 96.4974 23.5547 96.9406 22.6608C97.3838 21.7668 97.9917 21.0774 98.7645 20.5926C99.5372 20.1077 100.42 19.8653 101.412 19.8653C101.999 19.8653 102.55 19.9505 103.066 20.121C103.585 20.2914 104.052 20.5414 104.469 20.871C104.886 21.1968 105.234 21.5945 105.514 22.0642C105.795 22.5301 105.988 23.0623 106.094 23.6608ZM109.53 20.0244V31.6608H108.189V20.0244H109.53ZM111.986 31.6608V22.9335H113.327V31.6608H111.986ZM112.668 21.4789C112.407 21.4789 112.181 21.3899 111.992 21.2119C111.806 21.0339 111.713 20.8199 111.713 20.5699C111.713 20.3199 111.806 20.1058 111.992 19.9278C112.181 19.7498 112.407 19.6608 112.668 19.6608C112.929 19.6608 113.153 19.7498 113.338 19.9278C113.528 20.1058 113.622 20.3199 113.622 20.5699C113.622 20.8199 113.528 21.0339 113.338 21.2119C113.153 21.3899 112.929 21.4789 112.668 21.4789ZM119.442 31.8426C118.601 31.8426 117.876 31.657 117.266 31.2858C116.66 30.9108 116.192 30.388 115.862 29.7176C115.537 29.0433 115.374 28.2593 115.374 27.3653C115.374 26.4714 115.537 25.6835 115.862 25.0017C116.192 24.3161 116.65 23.782 117.237 23.3994C117.828 23.013 118.518 22.8199 119.306 22.8199C119.76 22.8199 120.209 22.8956 120.652 23.0471C121.095 23.1986 121.499 23.4449 121.862 23.7858C122.226 24.1229 122.516 24.5699 122.732 25.1267C122.948 25.6835 123.056 26.3691 123.056 27.1835V27.7517H116.328V26.5926H121.692C121.692 26.1002 121.594 25.6608 121.397 25.2744C121.203 24.888 120.927 24.5831 120.567 24.3596C120.211 24.1361 119.791 24.0244 119.306 24.0244C118.772 24.0244 118.309 24.157 117.919 24.4221C117.533 24.6835 117.236 25.0244 117.027 25.4449C116.819 25.8653 116.715 26.3161 116.715 26.7971V27.5699C116.715 28.2289 116.828 28.7877 117.056 29.246C117.287 29.7005 117.607 30.0471 118.016 30.2858C118.425 30.5206 118.9 30.638 119.442 30.638C119.794 30.638 120.112 30.5888 120.397 30.4903C120.684 30.388 120.933 30.2365 121.141 30.0358C121.349 29.8312 121.51 29.5774 121.624 29.2744L122.919 29.638C122.783 30.0774 122.554 30.4638 122.232 30.7971C121.91 31.1267 121.512 31.3843 121.039 31.5699C120.565 31.7517 120.033 31.8426 119.442 31.8426ZM126.436 26.4108V31.6608H125.095V22.9335H126.391V24.2971H126.505C126.709 23.8539 127.02 23.4979 127.436 23.2289C127.853 22.9562 128.391 22.8199 129.05 22.8199C129.641 22.8199 130.158 22.9411 130.601 23.1835C131.044 23.4221 131.389 23.7858 131.635 24.2744C131.881 24.7593 132.005 25.3729 132.005 26.1153V31.6608H130.664V26.2062C130.664 25.5206 130.486 24.9865 130.13 24.6039C129.773 24.2176 129.285 24.0244 128.664 24.0244C128.236 24.0244 127.853 24.1172 127.516 24.3028C127.183 24.4884 126.919 24.7593 126.726 25.1153C126.533 25.4714 126.436 25.9032 126.436 26.4108ZM138.25 22.9335V24.0699H133.728V22.9335H138.25ZM135.046 20.8426H136.387V29.1608C136.387 29.5396 136.442 29.8236 136.551 30.013C136.665 30.1986 136.809 30.3236 136.983 30.388C137.161 30.4486 137.349 30.4789 137.546 30.4789C137.693 30.4789 137.815 30.4714 137.909 30.4562C138.004 30.4373 138.08 30.4221 138.137 30.4108L138.409 31.6153C138.318 31.6494 138.192 31.6835 138.029 31.7176C137.866 31.7555 137.659 31.7744 137.409 31.7744C137.031 31.7744 136.659 31.693 136.296 31.5301C135.936 31.3672 135.637 31.1191 135.398 30.7858C135.163 30.4524 135.046 30.032 135.046 29.5244V20.8426ZM146.293 24.888L145.088 25.2289C145.013 25.0282 144.901 24.8331 144.753 24.6437C144.609 24.4505 144.412 24.2914 144.162 24.1664C143.912 24.0414 143.592 23.9789 143.202 23.9789C142.668 23.9789 142.223 24.1021 141.867 24.3483C141.514 24.5907 141.338 24.8994 141.338 25.2744C141.338 25.6077 141.46 25.871 141.702 26.0642C141.944 26.2574 142.323 26.4183 142.838 26.5471L144.134 26.8653C144.914 27.0547 145.496 27.3445 145.878 27.7346C146.261 28.121 146.452 28.6191 146.452 29.2289C146.452 29.7289 146.308 30.1759 146.02 30.5699C145.736 30.9638 145.338 31.2744 144.827 31.5017C144.316 31.7289 143.721 31.8426 143.043 31.8426C142.153 31.8426 141.416 31.6494 140.833 31.263C140.249 30.8767 139.88 30.3123 139.725 29.5699L140.997 29.2517C141.119 29.7214 141.348 30.0736 141.685 30.3085C142.026 30.5433 142.471 30.6608 143.02 30.6608C143.645 30.6608 144.141 30.5282 144.509 30.263C144.88 29.9941 145.066 29.6721 145.066 29.2971C145.066 28.9941 144.96 28.7403 144.747 28.5358C144.535 28.3274 144.21 28.1721 143.77 28.0699L142.316 27.7289C141.516 27.5396 140.929 27.246 140.554 26.8483C140.183 26.4468 139.997 25.9449 139.997 25.3426C139.997 24.8502 140.136 24.4146 140.412 24.0358C140.693 23.657 141.073 23.3596 141.554 23.1437C142.039 22.9278 142.588 22.8199 143.202 22.8199C144.066 22.8199 144.744 23.0093 145.236 23.388C145.732 23.7668 146.085 24.2668 146.293 24.888Z" fill="white"/>
<path d="M105.923 59.8748L104.015 57.5888C103.487 57.7208 102.947 57.7868 102.395 57.7868C101.219 57.7868 100.139 57.5108 99.1553 56.9588C98.1713 56.4068 97.3913 55.6448 96.8153 54.6728C96.2393 53.6888 95.9513 52.5788 95.9513 51.3428C95.9513 50.1188 96.2393 49.0208 96.8153 48.0488C97.3913 47.0648 98.1713 46.2968 99.1553 45.7448C100.139 45.1928 101.219 44.9168 102.395 44.9168C103.583 44.9168 104.663 45.1928 105.635 45.7448C106.619 46.2968 107.393 47.0648 107.957 48.0488C108.533 49.0208 108.821 50.1188 108.821 51.3428C108.821 52.4588 108.581 53.4788 108.101 54.4028C107.633 55.3148 106.991 56.0588 106.175 56.6348L109.055 59.8748H105.923ZM98.5433 51.3428C98.5433 52.1828 98.7053 52.9208 99.0293 53.5568C99.3533 54.1928 99.8033 54.6848 100.379 55.0328C100.967 55.3688 101.639 55.5368 102.395 55.5368C103.151 55.5368 103.817 55.3688 104.393 55.0328C104.969 54.6848 105.419 54.1928 105.743 53.5568C106.067 52.9208 106.229 52.1828 106.229 51.3428C106.229 50.5028 106.067 49.7708 105.743 49.1468C105.419 48.5108 104.969 48.0248 104.393 47.6888C103.817 47.3528 103.151 47.1848 102.395 47.1848C101.639 47.1848 100.967 47.3528 100.379 47.6888C99.8033 48.0248 99.3533 48.5108 99.0293 49.1468C98.7053 49.7708 98.5433 50.5028 98.5433 51.3428ZM120.145 47.6888V57.6608H117.607V56.4008C117.283 56.8328 116.857 57.1748 116.329 57.4268C115.813 57.6668 115.249 57.7868 114.637 57.7868C113.857 57.7868 113.167 57.6248 112.567 57.3008C111.967 56.9648 111.493 56.4788 111.145 55.8428C110.809 55.1948 110.641 54.4268 110.641 53.5388V47.6888H113.161V53.1788C113.161 53.9708 113.359 54.5828 113.755 55.0148C114.151 55.4348 114.691 55.6448 115.375 55.6448C116.071 55.6448 116.617 55.4348 117.013 55.0148C117.409 54.5828 117.607 53.9708 117.607 53.1788V47.6888H120.145ZM123.91 46.5008C123.466 46.5008 123.094 46.3628 122.794 46.0868C122.506 45.7988 122.362 45.4448 122.362 45.0248C122.362 44.6048 122.506 44.2568 122.794 43.9808C123.094 43.6928 123.466 43.5488 123.91 43.5488C124.354 43.5488 124.72 43.6928 125.008 43.9808C125.308 44.2568 125.458 44.6048 125.458 45.0248C125.458 45.4448 125.308 45.7988 125.008 46.0868C124.72 46.3628 124.354 46.5008 123.91 46.5008ZM125.152 47.6888V57.6608H122.632V47.6888H125.152ZM126.993 52.6748C126.993 51.6428 127.203 50.7428 127.623 49.9748C128.043 49.1948 128.625 48.5948 129.369 48.1748C130.113 47.7428 130.965 47.5268 131.925 47.5268C133.161 47.5268 134.181 47.8388 134.985 48.4628C135.801 49.0748 136.347 49.9388 136.623 51.0548H133.905C133.761 50.6228 133.515 50.2868 133.167 50.0468C132.831 49.7948 132.411 49.6688 131.907 49.6688C131.187 49.6688 130.617 49.9328 130.197 50.4608C129.777 50.9768 129.567 51.7148 129.567 52.6748C129.567 53.6228 129.777 54.3608 130.197 54.8888C130.617 55.4048 131.187 55.6628 131.907 55.6628C132.927 55.6628 133.593 55.2068 133.905 54.2948H136.623C136.347 55.3748 135.801 56.2328 134.985 56.8688C134.169 57.5048 133.149 57.8228 131.925 57.8228C130.965 57.8228 130.113 57.6128 129.369 57.1928C128.625 56.7608 128.043 56.1608 127.623 55.3928C127.203 54.6128 126.993 53.7068 126.993 52.6748ZM144.374 57.6608L140.99 53.4128V57.6608H138.47V44.3408H140.99V51.9188L144.338 47.6888H147.614L143.222 52.6928L147.65 57.6608H144.374ZM159.75 57.6608L156.978 52.7648H155.79V57.6608H153.27V45.0968H157.986C158.958 45.0968 159.786 45.2708 160.47 45.6188C161.154 45.9548 161.664 46.4168 162 47.0048C162.348 47.5808 162.522 48.2288 162.522 48.9488C162.522 49.7768 162.282 50.5268 161.802 51.1988C161.322 51.8588 160.608 52.3148 159.66 52.5668L162.666 57.6608H159.75ZM155.79 50.8748H157.896C158.58 50.8748 159.09 50.7128 159.426 50.3888C159.762 50.0528 159.93 49.5908 159.93 49.0028C159.93 48.4268 159.762 47.9828 159.426 47.6708C159.09 47.3468 158.58 47.1848 157.896 47.1848H155.79V50.8748ZM174.072 52.4588C174.072 52.8188 174.048 53.1428 174 53.4308H166.71C166.77 54.1508 167.022 54.7148 167.466 55.1228C167.91 55.5308 168.456 55.7348 169.104 55.7348C170.04 55.7348 170.706 55.3328 171.102 54.5288H173.82C173.532 55.4888 172.98 56.2808 172.164 56.9048C171.348 57.5168 170.346 57.8228 169.158 57.8228C168.198 57.8228 167.334 57.6128 166.566 57.1928C165.81 56.7608 165.216 56.1548 164.784 55.3748C164.364 54.5948 164.154 53.6948 164.154 52.6748C164.154 51.6428 164.364 50.7368 164.784 49.9568C165.204 49.1768 165.792 48.5768 166.548 48.1568C167.304 47.7368 168.174 47.5268 169.158 47.5268C170.106 47.5268 170.952 47.7308 171.696 48.1388C172.452 48.5468 173.034 49.1288 173.442 49.8848C173.862 50.6288 174.072 51.4868 174.072 52.4588ZM171.462 51.7388C171.45 51.0908 171.216 50.5748 170.76 50.1908C170.304 49.7948 169.746 49.5968 169.086 49.5968C168.462 49.5968 167.934 49.7888 167.502 50.1728C167.082 50.5448 166.824 51.0668 166.728 51.7388H171.462ZM179.727 57.8228C178.911 57.8228 178.179 57.6788 177.531 57.3908C176.883 57.0908 176.367 56.6888 175.983 56.1848C175.611 55.6808 175.407 55.1228 175.371 54.5108H177.909C177.957 54.8948 178.143 55.2128 178.467 55.4648C178.803 55.7168 179.217 55.8428 179.709 55.8428C180.189 55.8428 180.561 55.7468 180.825 55.5548C181.101 55.3628 181.239 55.1168 181.239 54.8168C181.239 54.4928 181.071 54.2528 180.735 54.0968C180.411 53.9288 179.889 53.7488 179.169 53.5568C178.425 53.3768 177.813 53.1908 177.333 52.9988C176.865 52.8068 176.457 52.5128 176.109 52.1168C175.773 51.7208 175.605 51.1868 175.605 50.5148C175.605 49.9628 175.761 49.4588 176.073 49.0028C176.397 48.5468 176.853 48.1868 177.441 47.9228C178.041 47.6588 178.743 47.5268 179.547 47.5268C180.735 47.5268 181.683 47.8268 182.391 48.4268C183.099 49.0148 183.489 49.8128 183.561 50.8208H181.149C181.113 50.4248 180.945 50.1128 180.645 49.8848C180.357 49.6448 179.967 49.5248 179.475 49.5248C179.019 49.5248 178.665 49.6088 178.413 49.7768C178.173 49.9448 178.053 50.1788 178.053 50.4788C178.053 50.8148 178.221 51.0728 178.557 51.2528C178.893 51.4208 179.415 51.5948 180.123 51.7748C180.843 51.9548 181.437 52.1408 181.905 52.3328C182.373 52.5248 182.775 52.8248 183.111 53.2328C183.459 53.6288 183.639 54.1568 183.651 54.8168C183.651 55.3928 183.489 55.9088 183.165 56.3648C182.853 56.8208 182.397 57.1808 181.797 57.4448C181.209 57.6968 180.519 57.8228 179.727 57.8228ZM188.24 49.1288C188.564 48.6728 189.008 48.2948 189.572 47.9948C190.148 47.6828 190.802 47.5268 191.534 47.5268C192.386 47.5268 193.154 47.7368 193.838 48.1568C194.534 48.5768 195.08 49.1768 195.476 49.9568C195.884 50.7248 196.088 51.6188 196.088 52.6388C196.088 53.6588 195.884 54.5648 195.476 55.3568C195.08 56.1368 194.534 56.7428 193.838 57.1748C193.154 57.6068 192.386 57.8228 191.534 57.8228C190.802 57.8228 190.154 57.6728 189.59 57.3728C189.038 57.0728 188.588 56.6948 188.24 56.2388V62.4128H185.72V47.6888H188.24V49.1288ZM193.514 52.6388C193.514 52.0388 193.388 51.5228 193.136 51.0908C192.896 50.6468 192.572 50.3108 192.164 50.0828C191.768 49.8548 191.336 49.7408 190.868 49.7408C190.412 49.7408 189.98 49.8608 189.572 50.1008C189.176 50.3288 188.852 50.6648 188.6 51.1088C188.36 51.5528 188.24 52.0748 188.24 52.6748C188.24 53.2748 188.36 53.7968 188.6 54.2408C188.852 54.6848 189.176 55.0268 189.572 55.2668C189.98 55.4948 190.412 55.6088 190.868 55.6088C191.336 55.6088 191.768 55.4888 192.164 55.2488C192.572 55.0088 192.896 54.6668 193.136 54.2228C193.388 53.7788 193.514 53.2508 193.514 52.6388ZM202.347 57.8228C201.387 57.8228 200.523 57.6128 199.755 57.1928C198.987 56.7608 198.381 56.1548 197.937 55.3748C197.505 54.5948 197.289 53.6948 197.289 52.6748C197.289 51.6548 197.511 50.7548 197.955 49.9748C198.411 49.1948 199.029 48.5948 199.809 48.1748C200.589 47.7428 201.459 47.5268 202.419 47.5268C203.379 47.5268 204.249 47.7428 205.029 48.1748C205.809 48.5948 206.421 49.1948 206.865 49.9748C207.321 50.7548 207.549 51.6548 207.549 52.6748C207.549 53.6948 207.315 54.5948 206.847 55.3748C206.391 56.1548 205.767 56.7608 204.975 57.1928C204.195 57.6128 203.319 57.8228 202.347 57.8228ZM202.347 55.6268C202.803 55.6268 203.229 55.5188 203.625 55.3028C204.033 55.0748 204.357 54.7388 204.597 54.2948C204.837 53.8508 204.957 53.3108 204.957 52.6748C204.957 51.7268 204.705 51.0008 204.201 50.4968C203.709 49.9808 203.103 49.7228 202.383 49.7228C201.663 49.7228 201.057 49.9808 200.565 50.4968C200.085 51.0008 199.845 51.7268 199.845 52.6748C199.845 53.6228 200.079 54.3548 200.547 54.8708C201.027 55.3748 201.627 55.6268 202.347 55.6268ZM214.923 47.5448C216.111 47.5448 217.071 47.9228 217.803 48.6788C218.535 49.4228 218.901 50.4668 218.901 51.8108V57.6608H216.381V52.1528C216.381 51.3608 216.183 50.7548 215.787 50.3348C215.391 49.9028 214.851 49.6868 214.167 49.6868C213.471 49.6868 212.919 49.9028 212.511 50.3348C212.115 50.7548 211.917 51.3608 211.917 52.1528V57.6608H209.397V47.6888H211.917V48.9308C212.253 48.4988 212.679 48.1628 213.195 47.9228C213.723 47.6708 214.299 47.5448 214.923 47.5448ZM225.114 57.8228C224.298 57.8228 223.566 57.6788 222.918 57.3908C222.27 57.0908 221.754 56.6888 221.37 56.1848C220.998 55.6808 220.794 55.1228 220.758 54.5108H223.296C223.344 54.8948 223.53 55.2128 223.854 55.4648C224.19 55.7168 224.604 55.8428 225.096 55.8428C225.576 55.8428 225.948 55.7468 226.212 55.5548C226.488 55.3628 226.626 55.1168 226.626 54.8168C226.626 54.4928 226.458 54.2528 226.122 54.0968C225.798 53.9288 225.276 53.7488 224.556 53.5568C223.812 53.3768 223.2 53.1908 222.72 52.9988C222.252 52.8068 221.844 52.5128 221.496 52.1168C221.16 51.7208 220.992 51.1868 220.992 50.5148C220.992 49.9628 221.148 49.4588 221.46 49.0028C221.784 48.5468 222.24 48.1868 222.828 47.9228C223.428 47.6588 224.13 47.5268 224.934 47.5268C226.122 47.5268 227.07 47.8268 227.778 48.4268C228.486 49.0148 228.876 49.8128 228.948 50.8208H226.536C226.5 50.4248 226.332 50.1128 226.032 49.8848C225.744 49.6448 225.354 49.5248 224.862 49.5248C224.406 49.5248 224.052 49.6088 223.8 49.7768C223.56 49.9448 223.44 50.1788 223.44 50.4788C223.44 50.8148 223.608 51.0728 223.944 51.2528C224.28 51.4208 224.802 51.5948 225.51 51.7748C226.23 51.9548 226.824 52.1408 227.292 52.3328C227.76 52.5248 228.162 52.8248 228.498 53.2328C228.846 53.6288 229.026 54.1568 229.038 54.8168C229.038 55.3928 228.876 55.9088 228.552 56.3648C228.24 56.8208 227.784 57.1808 227.184 57.4448C226.596 57.6968 225.906 57.8228 225.114 57.8228ZM240.376 52.4588C240.376 52.8188 240.352 53.1428 240.304 53.4308H233.014C233.074 54.1508 233.326 54.7148 233.77 55.1228C234.214 55.5308 234.76 55.7348 235.408 55.7348C236.344 55.7348 237.01 55.3328 237.406 54.5288H240.124C239.836 55.4888 239.284 56.2808 238.468 56.9048C237.652 57.5168 236.65 57.8228 235.462 57.8228C234.502 57.8228 233.638 57.6128 232.87 57.1928C232.114 56.7608 231.52 56.1548 231.088 55.3748C230.668 54.5948 230.458 53.6948 230.458 52.6748C230.458 51.6428 230.668 50.7368 231.088 49.9568C231.508 49.1768 232.096 48.5768 232.852 48.1568C233.608 47.7368 234.478 47.5268 235.462 47.5268C236.41 47.5268 237.256 47.7308 238 48.1388C238.756 48.5468 239.338 49.1288 239.746 49.8848C240.166 50.6288 240.376 51.4868 240.376 52.4588ZM237.766 51.7388C237.754 51.0908 237.52 50.5748 237.064 50.1908C236.608 49.7948 236.05 49.5968 235.39 49.5968C234.766 49.5968 234.238 49.7888 233.806 50.1728C233.386 50.5448 233.128 51.0668 233.032 51.7388H237.766Z" fill="white"/>
<defs>
<filter id="filter0_d_1_3754" x="0" y="0.000244141" width="87.3213" height="87.3215" filterUnits="userSpaceOnUse" color-interpolation-filters="sRGB">
<feFlood flood-opacity="0" result="BackgroundImageFix"/>
<feColorMatrix in="SourceAlpha" type="matrix" values="0 0 0 0 0 0 0 0 0 0 0 0 0 0 0 0 0 0 127 0" result="hardAlpha"/>
<feOffset dy="4"/>
<feGaussianBlur stdDeviation="2"/>
<feComposite in2="hardAlpha" operator="out"/>
<feColorMatrix type="matrix" values="0 0 0 0 0 0 0 0 0 0 0 0 0 0 0 0 0 0 0.25 0"/>
<feBlend mode="normal" in2="BackgroundImageFix" result="effect1_dropShadow_1_3754"/>
<feBlend mode="normal" in="SourceGraphic" in2="effect1_dropShadow_1_3754" result="shape"/>
</filter>
<filter id="filter1_d_1_3754" x="20.9609" y="30.7405" width="47.9307" height="23.16" filterUnits="userSpaceOnUse" color-interpolation-filters="sRGB">
<feFlood flood-opacity="0" result="BackgroundImageFix"/>
<feColorMatrix in="SourceAlpha" type="matrix" values="0 0 0 0 0 0 0 0 0 0 0 0 0 0 0 0 0 0 127 0" result="hardAlpha"/>
<feOffset dy="4"/>
<feGaussianBlur stdDeviation="2"/>
<feComposite in2="hardAlpha" operator="out"/>
<feColorMatrix type="matrix" values="0 0 0 0 0 0 0 0 0 0 0 0 0 0 0 0 0 0 0.25 0"/>
<feBlend mode="normal" in2="BackgroundImageFix" result="effect1_dropShadow_1_3754"/>
<feBlend mode="normal" in="SourceGraphic" in2="effect1_dropShadow_1_3754" result="shape"/>
</filter>
</defs>
</svg>
