<svg width="238" height="80" viewBox="0 0 238 80" fill="none" xmlns="http://www.w3.org/2000/svg">
<circle cx="39.982" cy="39.6607" r="39.6607" fill="#37393F"/>
<path d="M40.3304 1.50183C49.4559 1.58516 58.2493 4.93597 65.1162 10.9466C71.983 16.9573 76.4684 25.2297 77.7591 34.2638C79.0498 43.298 77.0602 52.4955 72.1512 60.1885C67.2422 67.8815 59.7388 73.5606 51.0017 76.1959C42.2647 78.8312 32.8725 78.2482 24.5284 74.5526C16.1843 70.857 9.44092 64.2935 5.52102 56.0524C1.60112 47.8113 0.764323 38.4384 3.16238 29.6332C5.56043 20.8281 11.0345 13.1739 18.592 8.05861" stroke="#40DDB6" stroke-width="3" stroke-linecap="round" stroke-linejoin="round"/>
<path d="M23.4824 37.9405C22.1491 37.2472 21.4824 36.1739 21.4824 34.7205C21.4824 34.0005 21.6624 33.3472 22.0224 32.7605C22.3958 32.1605 22.9491 31.6872 23.6824 31.3405C24.4291 30.9805 25.3358 30.8005 26.4024 30.8005C27.4691 30.8005 28.3691 30.9805 29.1024 31.3405C29.8491 31.6872 30.4024 32.1605 30.7624 32.7605C31.1358 33.3472 31.3224 34.0005 31.3224 34.7205C31.3224 35.4539 31.1424 36.1005 30.7824 36.6605C30.4224 37.2072 29.9424 37.6339 29.3424 37.9405C30.0758 38.2605 30.6491 38.7272 31.0624 39.3405C31.4758 39.9539 31.6824 40.6805 31.6824 41.5205C31.6824 42.4272 31.4491 43.2205 30.9824 43.9005C30.5291 44.5672 29.9024 45.0805 29.1024 45.4405C28.3024 45.8005 27.4024 45.9805 26.4024 45.9805C25.4024 45.9805 24.5024 45.8005 23.7024 45.4405C22.9158 45.0805 22.2891 44.5672 21.8224 43.9005C21.3691 43.2205 21.1424 42.4272 21.1424 41.5205C21.1424 40.6805 21.3491 39.9539 21.7624 39.3405C22.1758 38.7139 22.7491 38.2472 23.4824 37.9405ZM28.6024 35.1205C28.6024 34.4672 28.4024 33.9605 28.0024 33.6005C27.6158 33.2405 27.0824 33.0605 26.4024 33.0605C25.7358 33.0605 25.2024 33.2405 24.8024 33.6005C24.4158 33.9605 24.2224 34.4739 24.2224 35.1405C24.2224 35.7405 24.4224 36.2205 24.8224 36.5805C25.2358 36.9405 25.7624 37.1205 26.4024 37.1205C27.0424 37.1205 27.5691 36.9405 27.9824 36.5805C28.3958 36.2072 28.6024 35.7205 28.6024 35.1205ZM26.4024 39.1605C25.6424 39.1605 25.0224 39.3539 24.5424 39.7405C24.0758 40.1272 23.8424 40.6805 23.8424 41.4005C23.8424 42.0672 24.0691 42.6139 24.5224 43.0405C24.9891 43.4539 25.6158 43.6605 26.4024 43.6605C27.1891 43.6605 27.8091 43.4472 28.2624 43.0205C28.7158 42.5939 28.9424 42.0539 28.9424 41.4005C28.9424 40.6939 28.7091 40.1472 28.2424 39.7605C27.7758 39.3605 27.1624 39.1605 26.4024 39.1605ZM43.694 33.5005H37.214V36.9205C37.494 36.5739 37.894 36.2939 38.414 36.0805C38.934 35.8539 39.4873 35.7405 40.074 35.7405C41.1407 35.7405 42.014 35.9739 42.694 36.4405C43.374 36.9072 43.8673 37.5072 44.174 38.2405C44.4807 38.9605 44.634 39.7339 44.634 40.5605C44.634 42.0939 44.194 43.3272 43.314 44.2605C42.4473 45.1939 41.2073 45.6605 39.594 45.6605C38.074 45.6605 36.8607 45.2805 35.954 44.5205C35.0473 43.7605 34.534 42.7672 34.414 41.5405H37.134C37.254 42.0739 37.5207 42.5005 37.934 42.8205C38.3607 43.1405 38.9007 43.3005 39.554 43.3005C40.3407 43.3005 40.934 43.0539 41.334 42.5605C41.734 42.0672 41.934 41.4139 41.934 40.6005C41.934 39.7739 41.7273 39.1472 41.314 38.7205C40.914 38.2805 40.3207 38.0605 39.534 38.0605C38.974 38.0605 38.5073 38.2005 38.134 38.4805C37.7607 38.7605 37.494 39.1339 37.334 39.6005H34.654V31.0405H43.694V33.5005ZM46.4451 34.6605C46.4451 33.6472 46.7384 32.8539 47.3251 32.2805C47.9251 31.7072 48.6917 31.4205 49.6251 31.4205C50.5584 31.4205 51.3184 31.7072 51.9051 32.2805C52.5051 32.8539 52.8051 33.6472 52.8051 34.6605C52.8051 35.6872 52.5051 36.4872 51.9051 37.0605C51.3184 37.6339 50.5584 37.9205 49.6251 37.9205C48.6917 37.9205 47.9251 37.6339 47.3251 37.0605C46.7384 36.4872 46.4451 35.6872 46.4451 34.6605ZM59.2851 31.6605L51.4251 45.6605H48.7051L56.5451 31.6605H59.2851ZM49.6051 33.1005C48.8717 33.1005 48.5051 33.6205 48.5051 34.6605C48.5051 35.7139 48.8717 36.2405 49.6051 36.2405C49.9651 36.2405 50.2451 36.1139 50.4451 35.8605C50.6451 35.5939 50.7451 35.1939 50.7451 34.6605C50.7451 33.6205 50.3651 33.1005 49.6051 33.1005ZM55.2251 42.6405C55.2251 41.6139 55.5184 40.8205 56.1051 40.2605C56.7051 39.6872 57.4717 39.4005 58.4051 39.4005C59.3384 39.4005 60.0917 39.6872 60.6651 40.2605C61.2517 40.8205 61.5451 41.6139 61.5451 42.6405C61.5451 43.6672 61.2517 44.4672 60.6651 45.0405C60.0917 45.6139 59.3384 45.9005 58.4051 45.9005C57.4584 45.9005 56.6917 45.6139 56.1051 45.0405C55.5184 44.4672 55.2251 43.6672 55.2251 42.6405ZM58.3851 41.0805C57.6251 41.0805 57.2451 41.6005 57.2451 42.6405C57.2451 43.6939 57.6251 44.2205 58.3851 44.2205C59.1317 44.2205 59.5051 43.6939 59.5051 42.6405C59.5051 41.6005 59.1317 41.0805 58.3851 41.0805Z" fill="white"/>
<path d="M93.0517 31.6608V20.0244H96.9835C97.8964 20.0244 98.6426 20.1892 99.2221 20.5187C99.8055 20.8445 100.237 21.2858 100.518 21.8426C100.798 22.3994 100.938 23.0206 100.938 23.7062C100.938 24.3918 100.798 25.0149 100.518 25.5755C100.241 26.1361 99.813 26.5831 99.2335 26.9164C98.6539 27.246 97.9115 27.4108 97.0062 27.4108H94.188V26.1608H96.9608C97.5858 26.1608 98.0877 26.0528 98.4664 25.8369C98.8452 25.621 99.1199 25.3293 99.2903 24.9619C99.4645 24.5907 99.5517 24.1721 99.5517 23.7062C99.5517 23.2403 99.4645 22.8236 99.2903 22.4562C99.1199 22.0888 98.8433 21.8009 98.4608 21.5926C98.0782 21.3805 97.5706 21.2744 96.938 21.2744H94.4608V31.6608H93.0517ZM103.026 31.6608V22.9335H104.322V24.2517H104.412C104.572 23.8199 104.859 23.4695 105.276 23.2005C105.693 22.9316 106.162 22.7971 106.685 22.7971C106.784 22.7971 106.907 22.799 107.055 22.8028C107.202 22.8066 107.314 22.8123 107.39 22.8199V24.1835C107.344 24.1721 107.24 24.1551 107.077 24.1324C106.918 24.1058 106.75 24.0926 106.572 24.0926C106.147 24.0926 105.769 24.1816 105.435 24.3596C105.106 24.5339 104.844 24.7763 104.651 25.0869C104.462 25.3937 104.367 25.7441 104.367 26.138V31.6608H103.026ZM112.259 31.8426C111.471 31.8426 110.78 31.6551 110.185 31.2801C109.594 30.9051 109.132 30.3805 108.799 29.7062C108.469 29.032 108.305 28.2441 108.305 27.3426C108.305 26.4335 108.469 25.6399 108.799 24.9619C109.132 24.2839 109.594 23.7574 110.185 23.3824C110.78 23.0074 111.471 22.8199 112.259 22.8199C113.047 22.8199 113.736 23.0074 114.327 23.3824C114.922 23.7574 115.384 24.2839 115.714 24.9619C116.047 25.6399 116.214 26.4335 116.214 27.3426C116.214 28.2441 116.047 29.032 115.714 29.7062C115.384 30.3805 114.922 30.9051 114.327 31.2801C113.736 31.6551 113.047 31.8426 112.259 31.8426ZM112.259 30.638C112.858 30.638 113.35 30.4846 113.736 30.1778C114.123 29.871 114.409 29.4676 114.594 28.9676C114.78 28.4676 114.873 27.9259 114.873 27.3426C114.873 26.7593 114.78 26.2157 114.594 25.7119C114.409 25.2081 114.123 24.8009 113.736 24.4903C113.35 24.1797 112.858 24.0244 112.259 24.0244C111.661 24.0244 111.168 24.1797 110.782 24.4903C110.395 24.8009 110.109 25.2081 109.924 25.7119C109.738 26.2157 109.645 26.7593 109.645 27.3426C109.645 27.9259 109.738 28.4676 109.924 28.9676C110.109 29.4676 110.395 29.871 110.782 30.1778C111.168 30.4846 111.661 30.638 112.259 30.638ZM118.26 22.9335H119.601V32.2971C119.601 32.835 119.509 33.3009 119.323 33.6949C119.141 34.0888 118.865 34.3937 118.493 34.6096C118.126 34.8255 117.662 34.9335 117.101 34.9335C117.056 34.9335 117.01 34.9335 116.965 34.9335C116.92 34.9335 116.874 34.9335 116.829 34.9335V33.6835C116.874 33.6835 116.916 33.6835 116.954 33.6835C116.992 33.6835 117.033 33.6835 117.079 33.6835C117.488 33.6835 117.787 33.5623 117.976 33.3199C118.166 33.0812 118.26 32.7403 118.26 32.2971V22.9335ZM118.92 21.4789C118.658 21.4789 118.433 21.3899 118.243 21.2119C118.058 21.0339 117.965 20.8199 117.965 20.5699C117.965 20.3199 118.058 20.1058 118.243 19.9278C118.433 19.7498 118.658 19.6608 118.92 19.6608C119.181 19.6608 119.404 19.7498 119.59 19.9278C119.779 20.1058 119.874 20.3199 119.874 20.5699C119.874 20.8199 119.779 21.0339 119.59 21.2119C119.404 21.3899 119.181 21.4789 118.92 21.4789ZM125.716 31.8426C124.876 31.8426 124.15 31.657 123.54 31.2858C122.934 30.9108 122.466 30.388 122.137 29.7176C121.811 29.0433 121.648 28.2593 121.648 27.3653C121.648 26.4714 121.811 25.6835 122.137 25.0017C122.466 24.3161 122.925 23.782 123.512 23.3994C124.103 23.013 124.792 22.8199 125.58 22.8199C126.035 22.8199 126.483 22.8956 126.927 23.0471C127.37 23.1986 127.773 23.4449 128.137 23.7858C128.501 24.1229 128.79 24.5699 129.006 25.1267C129.222 25.6835 129.33 26.3691 129.33 27.1835V27.7517H122.603V26.5926H127.966C127.966 26.1002 127.868 25.6608 127.671 25.2744C127.478 24.888 127.201 24.5831 126.841 24.3596C126.485 24.1361 126.065 24.0244 125.58 24.0244C125.046 24.0244 124.584 24.157 124.194 24.4221C123.807 24.6835 123.51 25.0244 123.302 25.4449C123.093 25.8653 122.989 26.3161 122.989 26.7971V27.5699C122.989 28.2289 123.103 28.7877 123.33 29.246C123.561 29.7005 123.881 30.0471 124.29 30.2858C124.699 30.5206 125.175 30.638 125.716 30.638C126.069 30.638 126.387 30.5888 126.671 30.4903C126.959 30.388 127.207 30.2365 127.415 30.0358C127.624 29.8312 127.785 29.5774 127.898 29.2744L129.194 29.638C129.057 30.0774 128.828 30.4638 128.506 30.7971C128.184 31.1267 127.787 31.3843 127.313 31.5699C126.84 31.7517 126.307 31.8426 125.716 31.8426ZM134.915 31.8426C134.097 31.8426 133.393 31.6494 132.802 31.263C132.211 30.8767 131.756 30.3445 131.438 29.6664C131.12 28.9884 130.961 28.2138 130.961 27.3426C130.961 26.4562 131.124 25.674 131.449 24.996C131.779 24.3142 132.237 23.782 132.824 23.3994C133.415 23.013 134.105 22.8199 134.893 22.8199C135.506 22.8199 136.059 22.9335 136.552 23.1608C137.044 23.388 137.448 23.7062 137.762 24.1153C138.076 24.5244 138.271 25.0017 138.347 25.5471H137.006C136.904 25.1494 136.677 24.7971 136.324 24.4903C135.976 24.1797 135.506 24.0244 134.915 24.0244C134.393 24.0244 133.934 24.1608 133.54 24.4335C133.15 24.7024 132.845 25.0831 132.626 25.5755C132.41 26.0642 132.302 26.638 132.302 27.2971C132.302 27.9714 132.408 28.5585 132.62 29.0585C132.836 29.5585 133.139 29.9468 133.529 30.2233C133.923 30.4998 134.385 30.638 134.915 30.638C135.264 30.638 135.58 30.5774 135.864 30.4562C136.148 30.335 136.389 30.1608 136.586 29.9335C136.783 29.7062 136.923 29.4335 137.006 29.1153H138.347C138.271 29.6305 138.084 30.0945 137.785 30.5074C137.489 30.9164 137.097 31.2422 136.608 31.4846C136.124 31.7233 135.559 31.8426 134.915 31.8426ZM144.103 22.9335V24.0699H139.58V22.9335H144.103ZM140.898 20.8426H142.239V29.1608C142.239 29.5396 142.294 29.8236 142.404 30.013C142.518 30.1986 142.662 30.3236 142.836 30.388C143.014 30.4486 143.201 30.4789 143.398 30.4789C143.546 30.4789 143.667 30.4714 143.762 30.4562C143.857 30.4373 143.932 30.4221 143.989 30.4108L144.262 31.6153C144.171 31.6494 144.044 31.6835 143.881 31.7176C143.718 31.7555 143.512 31.7744 143.262 31.7744C142.883 31.7744 142.512 31.693 142.148 31.5301C141.788 31.3672 141.489 31.1191 141.251 30.7858C141.016 30.4524 140.898 30.032 140.898 29.5244V20.8426Z" fill="white"/>
<path d="M100.643 45.0968V47.1308H95.4046V50.3528H99.4186V52.3508H95.4046V57.6608H92.8846V45.0968H100.643ZM103.708 46.5008C103.264 46.5008 102.892 46.3628 102.592 46.0868C102.304 45.7988 102.16 45.4448 102.16 45.0248C102.16 44.6048 102.304 44.2568 102.592 43.9808C102.892 43.6928 103.264 43.5488 103.708 43.5488C104.152 43.5488 104.518 43.6928 104.806 43.9808C105.106 44.2568 105.256 44.6048 105.256 45.0248C105.256 45.4448 105.106 45.7988 104.806 46.0868C104.518 46.3628 104.152 46.5008 103.708 46.5008ZM104.95 47.6888V57.6608H102.43V47.6888H104.95ZM112.965 47.5448C114.153 47.5448 115.113 47.9228 115.845 48.6788C116.577 49.4228 116.943 50.4668 116.943 51.8108V57.6608H114.423V52.1528C114.423 51.3608 114.225 50.7548 113.829 50.3348C113.433 49.9028 112.893 49.6868 112.209 49.6868C111.513 49.6868 110.961 49.9028 110.553 50.3348C110.157 50.7548 109.959 51.3608 109.959 52.1528V57.6608H107.439V47.6888H109.959V48.9308C110.295 48.4988 110.721 48.1628 111.237 47.9228C111.765 47.6708 112.341 47.5448 112.965 47.5448ZM120.618 46.5008C120.174 46.5008 119.802 46.3628 119.502 46.0868C119.214 45.7988 119.07 45.4448 119.07 45.0248C119.07 44.6048 119.214 44.2568 119.502 43.9808C119.802 43.6928 120.174 43.5488 120.618 43.5488C121.062 43.5488 121.428 43.6928 121.716 43.9808C122.016 44.2568 122.166 44.6048 122.166 45.0248C122.166 45.4448 122.016 45.7988 121.716 46.0868C121.428 46.3628 121.062 46.5008 120.618 46.5008ZM121.86 47.6888V57.6608H119.34V47.6888H121.86ZM128.165 57.8228C127.349 57.8228 126.617 57.6788 125.969 57.3908C125.321 57.0908 124.805 56.6888 124.421 56.1848C124.049 55.6808 123.845 55.1228 123.809 54.5108H126.347C126.395 54.8948 126.581 55.2128 126.905 55.4648C127.241 55.7168 127.655 55.8428 128.147 55.8428C128.627 55.8428 128.999 55.7468 129.263 55.5548C129.539 55.3628 129.677 55.1168 129.677 54.8168C129.677 54.4928 129.509 54.2528 129.173 54.0968C128.849 53.9288 128.327 53.7488 127.607 53.5568C126.863 53.3768 126.251 53.1908 125.771 52.9988C125.303 52.8068 124.895 52.5128 124.547 52.1168C124.211 51.7208 124.043 51.1868 124.043 50.5148C124.043 49.9628 124.199 49.4588 124.511 49.0028C124.835 48.5468 125.291 48.1868 125.879 47.9228C126.479 47.6588 127.181 47.5268 127.985 47.5268C129.173 47.5268 130.121 47.8268 130.829 48.4268C131.537 49.0148 131.927 49.8128 131.999 50.8208H129.587C129.551 50.4248 129.383 50.1128 129.083 49.8848C128.795 49.6448 128.405 49.5248 127.913 49.5248C127.457 49.5248 127.103 49.6088 126.851 49.7768C126.611 49.9448 126.491 50.1788 126.491 50.4788C126.491 50.8148 126.659 51.0728 126.995 51.2528C127.331 51.4208 127.853 51.5948 128.561 51.7748C129.281 51.9548 129.875 52.1408 130.343 52.3328C130.811 52.5248 131.213 52.8248 131.549 53.2328C131.897 53.6288 132.077 54.1568 132.089 54.8168C132.089 55.3928 131.927 55.9088 131.603 56.3648C131.291 56.8208 130.835 57.1808 130.235 57.4448C129.647 57.6968 128.957 57.8228 128.165 57.8228ZM139.774 47.5448C140.53 47.5448 141.202 47.7128 141.79 48.0488C142.378 48.3728 142.834 48.8588 143.158 49.5068C143.494 50.1428 143.662 50.9108 143.662 51.8108V57.6608H141.142V52.1528C141.142 51.3608 140.944 50.7548 140.548 50.3348C140.152 49.9028 139.612 49.6868 138.928 49.6868C138.232 49.6868 137.68 49.9028 137.272 50.3348C136.876 50.7548 136.678 51.3608 136.678 52.1528V57.6608H134.158V44.3408H136.678V48.9308C137.002 48.4988 137.434 48.1628 137.974 47.9228C138.514 47.6708 139.114 47.5448 139.774 47.5448ZM155.328 52.4588C155.328 52.8188 155.304 53.1428 155.256 53.4308H147.966C148.026 54.1508 148.278 54.7148 148.722 55.1228C149.166 55.5308 149.712 55.7348 150.36 55.7348C151.296 55.7348 151.962 55.3328 152.358 54.5288H155.076C154.788 55.4888 154.236 56.2808 153.42 56.9048C152.604 57.5168 151.602 57.8228 150.414 57.8228C149.454 57.8228 148.59 57.6128 147.822 57.1928C147.066 56.7608 146.472 56.1548 146.04 55.3748C145.62 54.5948 145.41 53.6948 145.41 52.6748C145.41 51.6428 145.62 50.7368 146.04 49.9568C146.46 49.1768 147.048 48.5768 147.804 48.1568C148.56 47.7368 149.43 47.5268 150.414 47.5268C151.362 47.5268 152.208 47.7308 152.952 48.1388C153.708 48.5468 154.29 49.1288 154.698 49.8848C155.118 50.6288 155.328 51.4868 155.328 52.4588ZM152.718 51.7388C152.706 51.0908 152.472 50.5748 152.016 50.1908C151.56 49.7948 151.002 49.5968 150.342 49.5968C149.718 49.5968 149.19 49.7888 148.758 50.1728C148.338 50.5448 148.08 51.0668 147.984 51.7388H152.718ZM156.52 52.6388C156.52 51.6308 156.718 50.7368 157.114 49.9568C157.522 49.1768 158.074 48.5768 158.77 48.1568C159.466 47.7368 160.24 47.5268 161.092 47.5268C161.74 47.5268 162.358 47.6708 162.946 47.9588C163.534 48.2348 164.002 48.6068 164.35 49.0748V44.3408H166.906V57.6608H164.35V56.1848C164.038 56.6768 163.6 57.0728 163.036 57.3728C162.472 57.6728 161.818 57.8228 161.074 57.8228C160.234 57.8228 159.466 57.6068 158.77 57.1748C158.074 56.7428 157.522 56.1368 157.114 55.3568C156.718 54.5648 156.52 53.6588 156.52 52.6388ZM164.368 52.6748C164.368 52.0628 164.248 51.5408 164.008 51.1088C163.768 50.6648 163.444 50.3288 163.036 50.1008C162.628 49.8608 162.19 49.7408 161.722 49.7408C161.254 49.7408 160.822 49.8548 160.426 50.0828C160.03 50.3108 159.706 50.6468 159.454 51.0908C159.214 51.5228 159.094 52.0388 159.094 52.6388C159.094 53.2388 159.214 53.7668 159.454 54.2228C159.706 54.6668 160.03 55.0088 160.426 55.2488C160.834 55.4888 161.266 55.6088 161.722 55.6088C162.19 55.6088 162.628 55.4948 163.036 55.2668C163.444 55.0268 163.768 54.6908 164.008 54.2588C164.248 53.8148 164.368 53.2868 164.368 52.6748ZM180.982 45.0968V53.9168C180.982 55.1408 180.628 56.0948 179.92 56.7788C179.212 57.4508 178.264 57.7868 177.076 57.7868C175.876 57.7868 174.904 57.4388 174.16 56.7428C173.428 56.0468 173.062 55.0748 173.062 53.8268H175.582C175.594 54.3668 175.72 54.7868 175.96 55.0868C176.212 55.3868 176.572 55.5368 177.04 55.5368C177.496 55.5368 177.844 55.3928 178.084 55.1048C178.324 54.8168 178.444 54.4208 178.444 53.9168V45.0968H180.982ZM188.35 57.8228C187.39 57.8228 186.526 57.6128 185.758 57.1928C184.99 56.7608 184.384 56.1548 183.94 55.3748C183.508 54.5948 183.292 53.6948 183.292 52.6748C183.292 51.6548 183.514 50.7548 183.958 49.9748C184.414 49.1948 185.032 48.5948 185.812 48.1748C186.592 47.7428 187.462 47.5268 188.422 47.5268C189.382 47.5268 190.252 47.7428 191.032 48.1748C191.812 48.5948 192.424 49.1948 192.868 49.9748C193.324 50.7548 193.552 51.6548 193.552 52.6748C193.552 53.6948 193.318 54.5948 192.85 55.3748C192.394 56.1548 191.77 56.7608 190.978 57.1928C190.198 57.6128 189.322 57.8228 188.35 57.8228ZM188.35 55.6268C188.806 55.6268 189.232 55.5188 189.628 55.3028C190.036 55.0748 190.36 54.7388 190.6 54.2948C190.84 53.8508 190.96 53.3108 190.96 52.6748C190.96 51.7268 190.708 51.0008 190.204 50.4968C189.712 49.9808 189.106 49.7228 188.386 49.7228C187.666 49.7228 187.06 49.9808 186.568 50.4968C186.088 51.0008 185.848 51.7268 185.848 52.6748C185.848 53.6228 186.082 54.3548 186.55 54.8708C187.03 55.3748 187.63 55.6268 188.35 55.6268ZM197.92 49.1468C198.244 48.6668 198.688 48.2768 199.252 47.9768C199.828 47.6768 200.482 47.5268 201.214 47.5268C202.066 47.5268 202.834 47.7368 203.518 48.1568C204.214 48.5768 204.76 49.1768 205.156 49.9568C205.564 50.7248 205.768 51.6188 205.768 52.6388C205.768 53.6588 205.564 54.5648 205.156 55.3568C204.76 56.1368 204.214 56.7428 203.518 57.1748C202.834 57.6068 202.066 57.8228 201.214 57.8228C200.47 57.8228 199.816 57.6788 199.252 57.3908C198.7 57.0908 198.256 56.7068 197.92 56.2388V57.6608H195.4V44.3408H197.92V49.1468ZM203.194 52.6388C203.194 52.0388 203.068 51.5228 202.816 51.0908C202.576 50.6468 202.252 50.3108 201.844 50.0828C201.448 49.8548 201.016 49.7408 200.548 49.7408C200.092 49.7408 199.66 49.8608 199.252 50.1008C198.856 50.3288 198.532 50.6648 198.28 51.1088C198.04 51.5528 197.92 52.0748 197.92 52.6748C197.92 53.2748 198.04 53.7968 198.28 54.2408C198.532 54.6848 198.856 55.0268 199.252 55.2668C199.66 55.4948 200.092 55.6088 200.548 55.6088C201.016 55.6088 201.448 55.4888 201.844 55.2488C202.252 55.0088 202.576 54.6668 202.816 54.2228C203.068 53.7788 203.194 53.2508 203.194 52.6388ZM211.415 57.8228C210.599 57.8228 209.867 57.6788 209.219 57.3908C208.571 57.0908 208.055 56.6888 207.671 56.1848C207.299 55.6808 207.095 55.1228 207.059 54.5108H209.597C209.645 54.8948 209.831 55.2128 210.155 55.4648C210.491 55.7168 210.905 55.8428 211.397 55.8428C211.877 55.8428 212.249 55.7468 212.513 55.5548C212.789 55.3628 212.927 55.1168 212.927 54.8168C212.927 54.4928 212.759 54.2528 212.423 54.0968C212.099 53.9288 211.577 53.7488 210.857 53.5568C210.113 53.3768 209.501 53.1908 209.021 52.9988C208.553 52.8068 208.145 52.5128 207.797 52.1168C207.461 51.7208 207.293 51.1868 207.293 50.5148C207.293 49.9628 207.449 49.4588 207.761 49.0028C208.085 48.5468 208.541 48.1868 209.129 47.9228C209.729 47.6588 210.431 47.5268 211.235 47.5268C212.423 47.5268 213.371 47.8268 214.079 48.4268C214.787 49.0148 215.177 49.8128 215.249 50.8208H212.837C212.801 50.4248 212.633 50.1128 212.333 49.8848C212.045 49.6448 211.655 49.5248 211.163 49.5248C210.707 49.5248 210.353 49.6088 210.101 49.7768C209.861 49.9448 209.741 50.1788 209.741 50.4788C209.741 50.8148 209.909 51.0728 210.245 51.2528C210.581 51.4208 211.103 51.5948 211.811 51.7748C212.531 51.9548 213.125 52.1408 213.593 52.3328C214.061 52.5248 214.463 52.8248 214.799 53.2328C215.147 53.6288 215.327 54.1568 215.339 54.8168C215.339 55.3928 215.177 55.9088 214.853 56.3648C214.541 56.8208 214.085 57.1808 213.485 57.4448C212.897 57.6968 212.207 57.8228 211.415 57.8228Z" fill="white"/>
</svg>
